<?xml version="1.0" encoding="UTF-8"?>
<svg width="49px" height="34px" viewBox="0 0 49 34" version="1.1" xmlns="http://www.w3.org/2000/svg" xmlns:xlink="http://www.w3.org/1999/xlink">
    <!-- Generator: Sketch 42 (36781) - http://www.bohemiancoding.com/sketch -->
    <title>Add Car</title>
    <desc>Created with Sketch.</desc>
    <defs></defs>
    <g id="App-Pages" stroke="none" stroke-width="1" fill="none" fill-rule="evenodd">
        <g id="Place-Vehicle---empty-spot" transform="translate(-50.000000, -583.000000)" stroke="#FFFFFF">
            <g id="Group-2" transform="translate(36.000000, 580.000000)">
                <g id="Add-Car">
                    <g transform="translate(11.000000, 0.000000)">
                        <g id="add" stroke-width="1" fill-rule="evenodd" transform="translate(4.000000, 4.000000)" stroke-linecap="square">
                            <path d="M0.75,3.5 L7.75,3.5" id="line" stroke-width="2"></path>
                            <path d="M4.25,0 L4.25,7" id="line" stroke-width="2"></path>
                        </g>
                        <g id="Car-Copy" transform="translate(15.000000, 11.000000)" stroke-width="2" fill-rule="nonzero">
                            <path d="M34.4114597,8.86237817 L30.6074111,8.86237817 L29.5501309,6.46206628 C28.4636229,3.99424561 25.8706177,2.4 22.9434002,2.4 L14.8740137,2.4 C11.9474315,2.4 9.35379096,3.99424561 8.26664764,6.46206628 L7.2093674,8.86237817 L3.40595424,8.86237817 C2.90971874,8.86237817 2.54564327,9.28589474 2.66636638,9.72268226 L3.04759723,11.1074776 C3.13210341,11.4155945 3.43708809,11.6319688 3.78718509,11.6319688 L5.0624023,11.6319688 C4.20908057,12.3087875 3.65947276,13.2925692 3.65947276,14.4015595 L3.65947276,17.1711501 C3.65947276,18.101271 4.05086977,18.9408031 4.67608837,19.5905029 L4.67608837,22.7103314 C4.67608837,23.7298869 5.58659473,24.5567251 6.7093196,24.5567251 L8.74255082,24.5567251 C9.86527569,24.5567251 10.775782,23.7298869 10.775782,22.7103314 L10.775782,20.8639376 L27.0416319,20.8639376 L27.0416319,22.7103314 C27.0416319,23.7298869 27.9521382,24.5567251 29.0748631,24.5567251 L31.1080943,24.5567251 C32.2308192,24.5567251 33.1413255,23.7298869 33.1413255,22.7103314 L33.1413255,19.5905029 C33.7665441,18.9413801 34.1579411,18.101848 34.1579411,17.1711501 L34.1579411,14.4015595 C34.1579411,13.2925692 33.6083333,12.3087875 32.755647,11.6319688 L34.0308642,11.6319688 C34.3809612,11.6319688 34.6859459,11.4155945 34.7704521,11.1074776 L35.1516829,9.72268226 C35.2717706,9.28589474 34.9076952,8.86237817 34.4114597,8.86237817 Z M12.0421039,7.83359064 C12.5052994,6.78230019 13.6267535,6.09278752 14.8740137,6.09278752 L22.9434002,6.09278752 C24.1906604,6.09278752 25.3121145,6.78230019 25.77531,7.83359064 L27.0416319,10.7087719 L10.775782,10.7087719 L12.0421039,7.83359064 Z M8.74255082,17.1596101 C7.52261209,17.1596101 6.7093196,16.4233606 6.7093196,15.3189864 C6.7093196,14.2146121 7.52261209,13.4783626 8.74255082,13.4783626 C9.96248956,13.4783626 11.7923977,15.134924 11.7923977,16.2392982 C11.7923977,17.3436725 9.96248956,17.1596101 8.74255082,17.1596101 Z M29.0748631,17.1596101 C27.8549243,17.1596101 26.0250162,17.3436725 26.0250162,16.2392982 C26.0250162,15.134924 27.8549243,13.4783626 29.0748631,13.4783626 C30.2948018,13.4783626 31.1080943,14.2146121 31.1080943,15.3189864 C31.1080943,16.4233606 30.2948018,17.1596101 29.0748631,17.1596101 L29.0748631,17.1596101 Z" id="Shape"></path>
                        </g>
                    </g>
                </g>
            </g>
        </g>
    </g>
</svg>