<?xml version="1.0" encoding="UTF-8"?>
<svg width="42px" height="37px" viewBox="0 0 42 37" version="1.1" xmlns="http://www.w3.org/2000/svg" xmlns:xlink="http://www.w3.org/1999/xlink">
    <!-- Generator: Sketch 42 (36781) - http://www.bohemiancoding.com/sketch -->
    <title>Add Picture</title>
    <desc>Created with Sketch.</desc>
    <defs></defs>
    <g id="App-Pages" stroke="none" stroke-width="1" fill="none" fill-rule="evenodd" opacity="0.608469203">
        <g id="Note-Vehicle---save" transform="translate(-290.000000, -481.000000)" stroke="#5F5656">
            <g id="Add-Picture" transform="translate(291.000000, 482.000000)">
                <g style="mix-blend-mode: darken;">
                    <path d="M39.0247372,13.7866613 L39.0247372,31.2380759 C39.0247372,32.8438484 37.7219406,34.146645 36.1161681,34.146645 L10.9085691,34.146645 C9.30279658,34.146645 8,32.8438484 8,31.2380759 L8,13.7866613 C8,12.1808887 9.30279658,10.8780921 10.9085691,10.8780921 L16.2409458,10.8780921 L16.9862666,8.8845104 C17.410433,7.75138035 18.4950869,7 19.7069907,7 L27.311687,7 C28.5235908,7 29.6082447,7.75138035 30.032411,8.8845104 L30.7837914,10.8780921 L36.1161681,10.8780921 C37.7219406,10.8780921 39.0247372,12.1808887 39.0247372,13.7866613 Z M30.7837914,22.5123686 C30.7837914,18.500967 27.5237701,15.2409458 23.5123686,15.2409458 C19.500967,15.2409458 16.2409458,18.500967 16.2409458,22.5123686 C16.2409458,26.5237701 19.500967,29.7837914 23.5123686,29.7837914 C27.5237701,29.7837914 30.7837914,26.5237701 30.7837914,22.5123686 Z M27.8399917,22.5099918 C27.8399917,24.8964122 25.8964122,26.8399917 23.5099918,26.8399917 C21.1235714,26.8399917 19.1799919,24.8964122 19.1799919,22.5099918 C19.1799919,20.1235714 21.1235714,18.1799919 23.5099918,18.1799919 C25.8964122,18.1799919 27.8399917,20.1235714 27.8399917,22.5099918 Z" id="Shape" stroke-width="2" fill-rule="nonzero"></path>
                    <path d="M0.75,3.5 L7.75,3.5" id="line" stroke-width="2" stroke-linecap="square"></path>
                    <path d="M4.25,0 L4.25,7" id="line" stroke-width="2" stroke-linecap="square"></path>
                </g>
            </g>
        </g>
    </g>
</svg>