<?xml version="1.0" encoding="UTF-8"?>
<svg width="34px" height="30px" viewBox="0 0 34 30" version="1.1" xmlns="http://www.w3.org/2000/svg" xmlns:xlink="http://www.w3.org/1999/xlink">
    <!-- Generator: Sketch 42 (36781) - http://www.bohemiancoding.com/sketch -->
    <title>Shape</title>
    <desc>Created with Sketch.</desc>
    <defs></defs>
    <g id="Symbols" stroke="none" stroke-width="1" fill="none" fill-rule="evenodd">
        <g id="Camera-Copy" transform="translate(1.000000, 1.000000)" stroke="#FFFFFF" stroke-width="2" fill-rule="nonzero">
            <path d="M31.0247372,6.78666126 L31.0247372,24.2380759 C31.0247372,25.8438484 29.7219406,27.146645 28.1161681,27.146645 L2.90856911,27.146645 C1.30279658,27.146645 0,25.8438484 0,24.2380759 L0,6.78666126 C0,5.18088873 1.30279658,3.87809215 2.90856911,3.87809215 L8.24094581,3.87809215 L8.98626664,1.8845104 C9.41043297,0.751380353 10.4950869,0 11.7069907,0 L19.311687,0 C20.5235908,0 21.6082447,0.751380353 22.032411,1.8845104 L22.7837914,3.87809215 L28.1161681,3.87809215 C29.7219406,3.87809215 31.0247372,5.18088873 31.0247372,6.78666126 Z M22.7837914,15.5123686 C22.7837914,11.500967 19.5237701,8.24094581 15.5123686,8.24094581 C11.500967,8.24094581 8.24094581,11.500967 8.24094581,15.5123686 C8.24094581,19.5237701 11.500967,22.7837914 15.5123686,22.7837914 C19.5237701,22.7837914 22.7837914,19.5237701 22.7837914,15.5123686 Z M19.8399917,15.5099918 C19.8399917,17.8964122 17.8964122,19.8399917 15.5099918,19.8399917 C13.1235714,19.8399917 11.1799919,17.8964122 11.1799919,15.5099918 C11.1799919,13.1235714 13.1235714,11.1799919 15.5099918,11.1799919 C17.8964122,11.1799919 19.8399917,13.1235714 19.8399917,15.5099918 Z" id="Shape"></path>
        </g>
    </g>
</svg>