<?xml version="1.0" encoding="UTF-8"?>
<svg width="29px" height="29px" viewBox="0 0 29 29" version="1.1" xmlns="http://www.w3.org/2000/svg" xmlns:xlink="http://www.w3.org/1999/xlink">
    <!-- Generator: Sketch 42 (36781) - http://www.bohemiancoding.com/sketch -->
    <title>Shape</title>
    <desc>Created with Sketch.</desc>
    <defs>
        <filter x="-50%" y="-50%" width="200%" height="200%" filterUnits="objectBoundingBox" id="filter-1">
            <feOffset dx="0" dy="0" in="SourceAlpha" result="shadowOffsetOuter1"></feOffset>
            <feColorMatrix values="0 0 0 0 0   0 0 0 0 0   0 0 0 0 0  0 0 0 0.5 0" type="matrix" in="shadowOffsetOuter1" result="shadowMatrixOuter1"></feColorMatrix>
            <feMerge>
                <feMergeNode in="shadowMatrixOuter1"></feMergeNode>
                <feMergeNode in="SourceGraphic"></feMergeNode>
            </feMerge>
        </filter>
    </defs>
    <g id="App-Pages" stroke="none" stroke-width="1" fill="none" fill-rule="evenodd">
        <g id="Update-Vehicle---info" transform="translate(-47.000000, -578.000000)" stroke-width="1.5" stroke="#FFFFFF" fill-rule="nonzero">
            <g id="Bottom" transform="translate(0.000000, 118.000000)">
                <g id="Group-11">
                    <g id="Group-9" filter="url(#filter-1)" transform="translate(21.000000, 461.000000)">
                        <path d="M44.71875,23.625 L27.84375,23.625 C27.3796875,23.625 27,24.0046875 27,24.46875 L27,26.15625 C27,26.6203125 27.3796875,27 27.84375,27 L44.71875,27 C45.1828125,27 45.5625,26.6203125 45.5625,26.15625 L45.5625,24.46875 C45.5625,24.0046875 45.1828125,23.625 44.71875,23.625 Z M53.0085937,5.65839844 L48.7371094,1.38691406 C48.4101562,1.05996094 47.8722656,1.05996094 47.5453125,1.38691406 L46.9494141,1.9828125 C46.6224609,2.30976563 46.6224609,2.84765625 46.9494141,3.17460938 L48.9375,5.16269531 L48.9375,8.4375 C48.9375,9.91933594 50.0396484,11.1427734 51.46875,11.3484375 L51.46875,19.828125 C51.46875,20.5242188 50.8992187,21.09375 50.203125,21.09375 C49.5070312,21.09375 48.9375,20.5242188 48.9375,19.828125 L48.9375,18.140625 C48.9375,15.5777344 46.8597656,13.5 44.296875,13.5 L43.875,13.5 L43.875,3.375 C43.875,1.51347656 42.3615234,0 40.5,0 L32.0625,0 C30.2009766,0 28.6875,1.51347656 28.6875,3.375 L28.6875,21.9375 L43.875,21.9375 L43.875,16.03125 L44.296875,16.03125 C45.4623047,16.03125 46.40625,16.9751953 46.40625,18.140625 L46.40625,19.6066406 C46.40625,21.5947266 47.8300781,23.4035156 49.8076172,23.6091797 C52.0751953,23.8359375 54,22.0535156 54,19.828125 L54,8.04726563 C54,7.15078125 53.6414062,6.29121094 53.0085937,5.65839844 L53.0085937,5.65839844 Z M40.5,10.125 L32.0625,10.125 L32.0625,3.375 L40.5,3.375 L40.5,10.125 Z" id="Shape"></path>
                    </g>
                </g>
            </g>
        </g>
    </g>
</svg>