<?xml version="1.0" encoding="UTF-8"?>
<svg width="25px" height="25px" viewBox="0 0 25 25" version="1.1" xmlns="http://www.w3.org/2000/svg" xmlns:xlink="http://www.w3.org/1999/xlink">
    <!-- Generator: Sketch 42 (36781) - http://www.bohemiancoding.com/sketch -->
    <title>Note</title>
    <desc>Created with Sketch.</desc>
    <defs>
        <filter x="-50%" y="-50%" width="200%" height="200%" filterUnits="objectBoundingBox" id="filter-1">
            <feOffset dx="0" dy="0" in="SourceAlpha" result="shadowOffsetOuter1"></feOffset>
            <feColorMatrix values="0 0 0 0 0   0 0 0 0 0   0 0 0 0 0  0 0 0 0.5 0" type="matrix" in="shadowOffsetOuter1" result="shadowMatrixOuter1"></feColorMatrix>
            <feMerge>
                <feMergeNode in="shadowMatrixOuter1"></feMergeNode>
                <feMergeNode in="SourceGraphic"></feMergeNode>
            </feMerge>
        </filter>
    </defs>
    <g id="App-Pages" stroke="none" stroke-width="1" fill="none" fill-rule="evenodd">
        <g id="Update-Vehicle---info" transform="translate(-302.000000, -581.000000)" stroke-width="2" stroke="#FFFFFF" fill-rule="nonzero">
            <g id="Bottom" transform="translate(0.000000, 118.000000)">
                <g id="Group-11">
                    <g id="Group-9" filter="url(#filter-1)" transform="translate(21.000000, 461.000000)">
                        <g id="Group-8" transform="translate(253.000000, 0.000000)">
                            <g id="comment-alt-solid" transform="translate(26.000000, 0.000000)">
                                <g id="Note-Copy">
                                    <path d="M22.7870538,3.29411765 L6.07882282,3.29411765 C4.54288387,3.29411765 3.29411765,4.54288387 3.29411765,6.07882282 L3.29411765,18.6099961 C3.29411765,20.145935 4.54288387,21.3947013 6.07882282,21.3947013 L10.2558806,21.3947013 L10.2558806,25.0496268 C10.2558806,25.4760348 10.743204,25.7240476 11.086941,25.4716837 L16.5214672,21.3947013 L22.7870538,21.3947013 C24.3229928,21.3947013 25.571759,20.145935 25.571759,18.6099961 L25.571759,6.07882282 C25.571759,4.54288387 24.3229928,3.29411765 22.7870538,3.29411765 Z" id="Shape"></path>
                                </g>
                            </g>
                        </g>
                    </g>
                </g>
            </g>
        </g>
    </g>
</svg>