<?xml version="1.0" encoding="UTF-8"?>
<svg width="29px" height="30px" viewBox="0 0 29 30" version="1.1" xmlns="http://www.w3.org/2000/svg" xmlns:xlink="http://www.w3.org/1999/xlink">
    <!-- Generator: Sketch 42 (36781) - http://www.bohemiancoding.com/sketch -->
    <title>search-solid</title>
    <desc>Created with Sketch.</desc>
    <defs></defs>
    <g id="App-Pages" stroke="none" stroke-width="1" fill="none" fill-rule="evenodd">
        <g id="Map-View" transform="translate(-306.000000, -547.000000)" fill-rule="nonzero" fill="#828282">
            <g id="search-solid" transform="translate(306.000000, 547.000000)">
                <g id="Search">
                    <path d="M28.6035156,25.1288452 L22.9564453,19.4696045 C22.7015625,19.2141724 22.3560547,19.0722656 21.9935547,19.0722656 L21.0703125,19.0722656 C22.6335938,17.0685425 23.5625,14.5482788 23.5625,11.8066406 C23.5625,5.28460693 18.2892578,0 11.78125,0 C5.27324219,0 0,5.28460693 0,11.8066406 C0,18.3286743 5.27324219,23.6132812 11.78125,23.6132812 C14.5169922,23.6132812 17.0318359,22.682373 19.03125,21.1157227 L19.03125,22.0409546 C19.03125,22.4042358 19.1728516,22.7504883 19.4277344,23.0059204 L25.0748047,28.6651611 C25.6072266,29.1987305 26.4681641,29.1987305 26.9949219,28.6651611 L28.5978516,27.0587769 C29.1302734,26.5252075 29.1302734,25.6624146 28.6035156,25.1288452 Z M11.78125,19.0722656 C7.77675781,19.0722656 4.53125,15.8254395 4.53125,11.8066406 C4.53125,7.79351807 7.77109375,4.54101562 11.78125,4.54101562 C15.7857422,4.54101562 19.03125,7.7878418 19.03125,11.8066406 C19.03125,15.8197632 15.7914063,19.0722656 11.78125,19.0722656 Z" id="Shape"></path>
                </g>
            </g>
        </g>
    </g>
</svg>